<svg xmlns="http://www.w3.org/2000/svg" width="120" height="40" viewBox="0 0 120 40">
  <defs>
    <linearGradient id="btn-grad" x1="0%" y1="0%" x2="0%" y2="100%">
      <stop offset="0%" stop-color="#7a1c22" />
      <stop offset="50%" stop-color="#661117" />
      <stop offset="100%" stop-color="#520b10" />
    </linearGradient>
  </defs>
  <!-- Pill Background with Border -->
  <rect x="1" y="1" width="118" height="38" rx="19" fill="url(#btn-grad)" stroke="#f5c098" stroke-width="1.5" />
  
  <!-- Icon and Text Group -->
  <!-- Centered horizontally and vertically -->
  <!-- Icon (Gmail) -->
  <svg x="25" y="11" width="18" height="18" viewBox="0 0 24 24">
    <path d="M24 5.457v13.909c0 .904-.732 1.636-1.636 1.636h-3.819V11.73L12 16.64l-6.545-4.91v9.273H1.636A1.636 1.636 0 0 1 0 19.366V5.457c0-2.023 2.309-3.178 3.927-1.964L5.455 4.64 12 9.548l6.545-4.91 1.528-1.145C21.69 2.28 24 3.434 24 5.457z" fill="#f5c098" />
  </svg>
  <!-- Text -->
  <text x="53" y="20" font-family="-apple-system, BlinkMacSystemFont, 'Segoe UI', Roboto, 'Helvetica Neue', Arial, sans-serif" font-size="14" font-weight="600" fill="#f5c098" dominant-baseline="central">Email</text>
</svg>
