<svg xmlns="http://www.w3.org/2000/svg" width="150" height="40" viewBox="0 0 150 40">
  <defs>
    <linearGradient id="btn-grad" x1="0%" y1="0%" x2="0%" y2="100%">
      <stop offset="0%" stop-color="#7a1c22" />
      <stop offset="50%" stop-color="#661117" />
      <stop offset="100%" stop-color="#520b10" />
    </linearGradient>
  </defs>
  <!-- Pill Background with Border -->
  <rect x="1" y="1" width="148" height="38" rx="19" fill="url(#btn-grad)" stroke="#f5c098" stroke-width="1.5" />
  
  <!-- Icon and Text Group -->
  <!-- Centered horizontally and vertically -->
  <!-- Icon (LinkedIn) -->
  <svg x="28" y="11" width="18" height="18" viewBox="0 0 24 24">
    <path d="M19 0h-14c-2.761 0-5 2.239-5 5v14c0 2.761 2.239 5 5 5h14c2.762 0 5-2.239 5-5v-14c0-2.761-2.238-5-5-5zm-11 19h-3v-11h3v11zm-1.5-12.268c-.966 0-1.75-.779-1.75-1.75s.784-1.75 1.75-1.75 1.75.779 1.75 1.75-.784 1.75-1.75 1.75zm13.5 12.268h-3v-5.604c0-3.368-4-3.113-4 0v5.604h-3v-11h3v1.765c1.396-2.586 7-2.777 7 2.476v6.759z" fill="#f5c098" />
  </svg>
  <!-- Text -->
  <text x="56" y="20" font-family="-apple-system, BlinkMacSystemFont, 'Segoe UI', Roboto, 'Helvetica Neue', Arial, sans-serif" font-size="14" font-weight="600" fill="#f5c098" dominant-baseline="central">LinkedIn</text>
</svg>
