<svg xmlns="http://www.w3.org/2000/svg" width="150" height="40" viewBox="0 0 150 40">
  <defs>
    <linearGradient id="btn-grad" x1="0%" y1="0%" x2="0%" y2="100%">
      <stop offset="0%" stop-color="#7a1c22" />
      <stop offset="50%" stop-color="#661117" />
      <stop offset="100%" stop-color="#520b10" />
    </linearGradient>
  </defs>
  <!-- Pill Background with Border -->
  <rect x="1" y="1" width="148" height="38" rx="19" fill="url(#btn-grad)" stroke="#f5c098" stroke-width="1.5" />
  
  <!-- Icon and Text Group -->
  <!-- Centered horizontally and vertically -->
  <!-- Icon (Google Chrome / Portfolio) -->
  <svg x="27" y="11" width="18" height="18" viewBox="0 0 24 24">
    <path d="M12 0C8.21 0 4.831 1.757 2.632 4.501l3.953 6.848A5.454 5.454 0 0 1 12 6.545h10.691A12 12 0 0 0 12 0zM1.931 5.47A11.943 11.943 0 0 0 0 12c0 6.012 4.42 10.991 10.189 11.864l3.953-6.847a5.45 5.45 0 0 1-6.865-2.29zm13.342 2.166a5.446 5.446 0 0 1 1.45 7.09l.002.001h-.002l-5.344 9.257c.206.01.413.016.621.016 6.627 0 12-5.373 12-12 0-1.54-.29-3.011-.818-4.364zM12 16.364a4.364 4.364 0 1 1 0-8.728 4.364 4.364 0 0 1 0 8.728Z" fill="#f5c098" />
  </svg>
  <!-- Text -->
  <text x="55" y="20" font-family="-apple-system, BlinkMacSystemFont, 'Segoe UI', Roboto, 'Helvetica Neue', Arial, sans-serif" font-size="14" font-weight="600" fill="#f5c098" dominant-baseline="central">Portfolio</text>
</svg>
