<svg xmlns="http://www.w3.org/2000/svg" width="140" height="40" viewBox="0 0 140 40">
  <defs>
    <linearGradient id="btn-grad" x1="0%" y1="0%" x2="0%" y2="100%">
      <stop offset="0%" stop-color="#7a1c22" />
      <stop offset="50%" stop-color="#661117" />
      <stop offset="100%" stop-color="#520b10" />
    </linearGradient>
  </defs>
  <!-- Pill Background with Border -->
  <rect x="1" y="1" width="138" height="38" rx="19" fill="url(#btn-grad)" stroke="#f5c098" stroke-width="1.5" />
  
  <!-- Icon and Text Group -->
  <!-- Centered horizontally and vertically -->
  <!-- Icon (Upwork) -->
  <svg x="28" y="11" width="18" height="18" viewBox="0 0 24 24">
    <path d="M18.561 13.158c-1.102 0-2.135-.467-3.074-1.227l.228-1.076.008-.042c.207-1.143.849-3.06 2.839-3.06 1.492 0 2.703 1.212 2.703 2.703-.001 1.489-1.212 2.702-2.704 2.702zm0-8.14c-2.539 0-4.51 1.649-5.31 4.366-1.22-1.834-2.148-4.036-2.687-5.892H7.828v7.112c-.002 1.406-1.141 2.546-2.547 2.548-1.405-.002-2.543-1.143-2.545-2.548V3.492H0v7.112c0 2.914 2.37 5.303 5.281 5.303 2.913 0 5.283-2.389 5.283-5.303v-1.19c.529 1.107 1.182 2.229 1.974 3.221l-1.673 7.873h2.797l1.213-5.71c1.063.679 2.285 1.109 3.686 1.109 3 0 5.439-2.452 5.439-5.45 0-3-2.439-5.439-5.439-5.439z" fill="#f5c098" />
  </svg>
  <!-- Text -->
  <text x="56" y="20" font-family="-apple-system, BlinkMacSystemFont, 'Segoe UI', Roboto, 'Helvetica Neue', Arial, sans-serif" font-size="14" font-weight="600" fill="#f5c098" dominant-baseline="central">Upwork</text>
</svg>
